<?xml version="1.0" standalone="no"?>
<!DOCTYPE svg PUBLIC "-//W3C//DTD SVG 20010904//EN"
 "http://www.w3.org/TR/2001/REC-SVG-20010904/DTD/svg10.dtd">
<svg version="1.0" xmlns="http://www.w3.org/2000/svg"
 width="2000.000000pt" height="2000.000000pt" viewBox="0 0 2000.000000 2000.000000"
 preserveAspectRatio="xMidYMid meet">

<g transform="translate(0.000000,2000.000000) scale(0.100000,-0.100000)"
fill="#000000" stroke="none">
<path d="M9255 16689 c-1038 -95 -1773 -336 -2359 -772 -403 -301 -677 -695
-785 -1131 l-27 -109 -79 -29 c-153 -56 -323 -132 -560 -248 -1263 -622 -2264
-1625 -2924 -2930 -208 -412 -376 -828 -442 -1095 -145 -590 -20 -1223 339
-1710 182 -248 594 -663 951 -960 1183 -982 2703 -1662 4287 -1919 398 -65
632 -88 1052 -106 l233 -9 85 -80 c400 -379 983 -587 1859 -666 248 -22 771
-30 1095 -16 361 16 918 62 1109 92 155 24 251 125 251 264 0 125 -30 171
-183 288 -277 212 -536 487 -751 798 -36 53 -66 101 -66 106 0 4 28 24 63 42
114 62 408 242 531 324 721 482 1414 1191 1903 1945 42 64 77 119 79 120 1 2
55 -41 118 -96 152 -131 294 -225 491 -322 243 -120 460 -194 771 -264 340
-76 908 -140 1013 -114 116 29 198 122 208 237 7 81 -9 127 -85 243 -475 723
-727 1425 -814 2268 -17 168 -17 735 0 905 52 512 155 983 324 1490 44 132 49
157 45 212 -8 112 -90 217 -190 244 -54 15 -170 7 -362 -26 -869 -146 -1427
-429 -1806 -919 -38 -48 -77 -101 -86 -117 -10 -16 -21 -29 -26 -29 -5 0 -50
37 -101 83 -906 823 -1995 1496 -3054 1888 l-173 64 5 45 c17 130 108 345 213
505 114 173 319 393 528 564 55 46 121 100 146 121 132 110 134 304 4 418 -41
36 -69 49 -204 92 -313 99 -545 157 -853 214 -172 32 -577 82 -770 96 -170 12
-870 11 -1003 -1z m1040 -554 c332 -29 629 -75 945 -147 52 -11 97 -22 99 -24
2 -2 -40 -49 -93 -106 -123 -132 -189 -216 -285 -358 -131 -195 -243 -437
-286 -617 -10 -40 -22 -73 -27 -73 -4 0 -117 27 -251 60 -612 151 -1124 218
-1742 227 -671 10 -1229 -48 -1821 -191 -54 -14 -100 -23 -102 -21 -7 7 53
114 112 200 70 102 216 259 324 348 326 266 827 484 1383 601 338 72 509 93
974 120 126 8 607 -4 770 -19z m-1345 -1606 c1649 -105 3251 -754 4670 -1892
212 -171 437 -370 679 -600 73 -70 152 -137 174 -148 143 -73 325 5 385 166
13 33 48 104 78 157 245 434 632 696 1246 844 65 15 120 25 124 21 4 -3 1 -26
-5 -49 -73 -274 -150 -615 -167 -744 -3 -28 -10 -57 -14 -63 -4 -7 -79 -30
-166 -52 -225 -57 -562 -158 -607 -182 -21 -12 -51 -41 -67 -66 -51 -76 -39
-190 26 -254 76 -76 134 -78 339 -13 160 50 415 120 420 114 2 -2 -1 -52 -5
-113 -5 -60 -9 -224 -9 -362 l-1 -253 -22 -4 c-13 -3 -116 -14 -230 -25 -218
-21 -258 -32 -305 -83 -100 -107 -49 -292 92 -333 45 -13 71 -13 255 5 113 11
214 20 226 20 18 0 22 -11 38 -127 22 -161 68 -394 107 -541 17 -63 28 -116
26 -118 -3 -3 -67 9 -143 26 -203 44 -240 41 -313 -26 -96 -86 -84 -240 24
-316 45 -32 170 -63 427 -106 l160 -27 43 -105 c68 -169 131 -306 206 -448 39
-74 68 -136 65 -140 -9 -9 -271 38 -415 74 -527 133 -890 358 -1118 694 -39
58 -82 115 -94 127 -103 94 -279 92 -376 -5 -17 -17 -77 -109 -133 -203 -786
-1321 -1869 -2248 -3210 -2749 -614 -229 -1220 -354 -1944 -401 -233 -15 -842
-6 -1076 16 -1298 120 -2526 522 -3640 1188 -219 131 -700 459 -700 476 0 3
41 23 91 45 275 118 601 371 831 646 106 126 244 334 309 464 42 85 53 116 52
154 -2 119 -88 205 -204 205 -68 0 -137 -35 -166 -85 -11 -18 -47 -82 -82
-143 -212 -376 -502 -658 -866 -840 -130 -66 -331 -142 -354 -133 -5 1 -80 68
-167 148 -169 156 -397 393 -521 544 -245 296 -364 647 -350 1031 9 221 51
388 177 705 656 1644 1853 2851 3440 3471 563 219 1247 367 1895 408 184 12
680 12 865 0z m2930 -8381 c98 -159 315 -439 453 -584 37 -39 67 -74 67 -76 0
-15 -480 -33 -860 -33 -445 1 -633 12 -927 55 -281 42 -583 118 -738 186 l-40
18 100 13 c353 46 667 104 934 174 302 79 665 198 876 288 39 16 75 30 80 30
6 1 30 -32 55 -71z"/>
<path d="M7605 12906 c-5 -3 -22 -7 -38 -10 -36 -8 -107 -73 -124 -113 -19
-47 -16 -127 6 -171 11 -20 59 -85 108 -144 370 -444 620 -977 712 -1523 32
-186 41 -283 48 -500 22 -723 -176 -1498 -599 -2349 -90 -180 -90 -181 -86
-247 5 -85 36 -137 105 -170 91 -44 200 -21 257 54 32 41 222 441 301 632 242
582 379 1120 425 1660 13 157 13 500 -1 662 -38 466 -154 883 -359 1298 -55
110 -130 249 -167 308 -159 252 -397 553 -463 587 -38 19 -105 33 -125 26z"/>
<path d="M10489 12717 c-95 -51 -135 -169 -91 -270 18 -40 66 -81 431 -374
334 -267 411 -332 409 -350 -2 -13 -137 -146 -378 -370 -206 -191 -383 -364
-394 -383 -42 -72 -17 -194 53 -253 62 -51 167 -61 231 -20 41 26 782 716 814
758 70 91 103 222 86 335 -14 88 -68 194 -127 251 -67 64 -821 663 -860 683
-47 24 -121 21 -174 -7z"/>
<path d="M12441 11234 c-71 -36 -104 -86 -109 -168 -3 -49 0 -71 17 -103 24
-49 47 -68 299 -248 106 -76 200 -148 208 -159 16 -23 18 -69 5 -94 -5 -9 -88
-86 -184 -171 -198 -174 -222 -206 -220 -293 3 -128 97 -209 232 -199 55 4 83
23 270 191 212 189 234 213 277 305 103 215 36 472 -160 619 -190 142 -455
325 -485 335 -53 17 -92 13 -150 -15z"/>
<path d="M11350 10014 c-78 -34 -123 -100 -124 -184 0 -96 12 -111 301 -353
162 -136 266 -230 269 -244 4 -13 4 -33 0 -45 -3 -13 -109 -149 -237 -303
-127 -154 -240 -298 -250 -320 -27 -58 -24 -113 9 -176 50 -96 170 -136 269
-88 35 17 90 78 287 316 245 297 297 371 322 467 39 146 -3 329 -103 446 -53
61 -530 458 -578 481 -48 22 -117 24 -165 3z"/>
</g>
</svg>
